<svg id="Layer_1" data-name="Layer 1" xmlns="http://www.w3.org/2000/svg" xmlns:xlink="http://www.w3.org/1999/xlink" viewBox="0 0 1500 1000"><defs><style>.cls-1{fill:#003893;}.cls-2{fill:#dc143c;}.cls-3{fill:#fff;}.cls-4{fill:url(#linear-gradient);}</style><linearGradient id="linear-gradient" y1="499.53" x2="755.87" y2="499.53" gradientUnits="userSpaceOnUse"><stop offset="0" stop-opacity="0.1"/><stop offset="0.08" stop-color="#202020" stop-opacity="0.11"/><stop offset="0.18" stop-color="#797979" stop-opacity="0.15"/><stop offset="0.3" stop-color="#fff" stop-opacity="0.2"/><stop offset="0.38" stop-color="#969696" stop-opacity="0.2"/><stop offset="0.47" stop-color="#424242" stop-opacity="0.2"/><stop offset="0.57" stop-color="#101010" stop-opacity="0.2"/><stop offset="0.7" stop-opacity="0.2"/><stop offset="0.84" stop-color="#fff" stop-opacity="0.05"/><stop offset="1" stop-opacity="0.2"/></linearGradient></defs><title>nepal</title><path class="cls-1" d="M0,971V0C252,257.58,503.91,223.85,755.87,481.43c-166.4-64.13-332.8-1.2-499.2,21C417.12,644.22,577.57,748.14,738,964.62,492,882.93,246,1065.83,0,971Z"/><path id="_28" data-name="28" class="cls-2" d="M16.81,470.46c226.92,76,453.83-73.69,680.75-23.59C470.64,252.24,243.73,257.44,16.81,36.87V960.05c226.92,76,453.83-73.69,680.75-23.59C470.64,655.57,243.73,574.5,16.81,267.67Z"/><path id="_27" data-name="27" class="cls-3" d="M51.42,317.77c14.71,41.63,43.21,75.82,77.39,92.81,34.18,17.29,74,17.38,111.48-2.06,37.67-19.5,67.49-55.35,82.3-96.27,0,75.53-60.71,150.93-135.59,154.87-74.88,4.41-135.58-73.05-135.58-149.35"/><path id="_26" data-name="26" class="cls-3" d="M187,329.21c34.85-1.6,63.1,23.06,63.1,58.59,0,35.35-28.25,68.16-63.1,69.76s-63.09-29.31-63.09-64.74S152.16,330.92,187,329.21Z"/><path id="_25" data-name="25" class="cls-3" d="M211.15,332.58,204.1,305q-8.55,12.21-17.1,24.22"/><path id="_24" data-name="24" class="cls-3" d="M231.62,344.58q2-14.58,4.06-29.17-12.27,8.76-24.53,17.17"/><path id="_23" data-name="23" class="cls-3" d="M245.29,363.84q7.29-13.36,14.57-26.84-14.13,4-28.24,7.58"/><path id="_22" data-name="22" class="cls-3" d="M250.1,387.8q11.41-10.14,22.84-20.53-13.81-1.54-27.65-3.43"/><path id="_21" data-name="21" class="cls-3" d="M245.29,413q13.83-5.26,27.65-10.91-11.42-7-22.84-14.24"/><path id="_20" data-name="20" class="cls-3" d="M231.62,435.33q14.12.57,28.24.7-7.29-11.49-14.57-23.08"/><path id="_19" data-name="19" class="cls-3" d="M162.86,334.72l7-28.2Q178.45,318,187,329.21"/><path id="_18" data-name="18" class="cls-3" d="M142.39,348.37q-2-14.43-4.07-28.87,12.27,7.89,24.54,15.22"/><path id="_17" data-name="17" class="cls-3" d="M128.71,368.57q-7.29-12.92-14.57-26,14.13,3.31,28.25,5.83"/><path id="_16" data-name="16" class="cls-3" d="M123.91,392.82q-11.43-9.48-22.85-19.5,13.83-2,27.65-4.75"/><path id="_15" data-name="15" class="cls-3" d="M128.71,417.68q-13.83-4.4-27.65-9.59,11.43-7.35,22.85-15.27"/><path id="_1" data-name="1" class="cls-3" d="M114.16,607q3.75,31.27,7.51,62.48A478.61,478.61,0,0,1,60.84,653.2q18.45,28.84,36.92,56a437.59,437.59,0,0,1-56.44,13.41,655.1,655.1,0,0,0,56.44,35.23Q79.3,780.42,60.84,801.38a433.47,433.47,0,0,0,60.83,1q-3.75,30.66-7.51,61.26c16.31-11.07,32.62-23,48.93-35.6q12,28.63,23.91,56.78,12-29.24,23.91-58.9c16.31,11.22,32.62,21.89,48.93,32.19q-3.75-30.43-7.51-60.88c20.28-.07,40.56-.76,60.83-1.78q-18.45-21.63-36.91-43.7c18.81-11,37.62-22.33,56.43-33.9-18.81-4.64-37.62-9.47-56.43-14.74q18.45-27.67,36.91-55.83c-20.27,6.11-40.55,11.89-60.83,17q3.77-31.41,7.51-62.86-24.46,22.11-48.93,42.91-12-27.75-23.91-55.9-12,29.25-23.91,58C146.78,634,130.47,620.92,114.16,607Z"/><path class="cls-4" d="M0,971V0C252,257.58,503.91,223.85,755.87,481.43c-166.4-64.13-332.8-1.2-499.2,21C417.12,644.22,577.57,748.14,738,964.62,492,882.93,246,1065.83,0,971Z"/></svg>