<svg width="24" height="24" viewBox="0 0 24 24" fill="none" xmlns="http://www.w3.org/2000/svg">
<path d="M23.7505 18.4575C22.8955 18.675 22.3668 18.4669 21.8924 17.7544C20.8274 16.1587 19.6518 14.6362 18.5174 13.0856C18.3712 12.885 18.2193 12.6881 18.0299 12.4387C16.6874 14.25 15.3468 15.975 14.0887 17.7694C13.6387 18.4106 13.1662 18.69 12.3262 18.4631L17.3737 11.6887L12.6749 5.57062C13.483 5.41312 14.0418 5.49375 14.5368 6.2175C15.6299 7.815 16.8355 9.33562 18.0374 10.9444C19.2468 9.34125 20.4374 7.81875 21.5624 6.23625C22.0143 5.595 22.4999 5.35125 23.3118 5.5875C22.6968 6.40312 22.0949 7.20562 21.4893 8.0025C20.6718 9.07687 19.8693 10.1644 19.0218 11.2162C18.7199 11.5912 18.7687 11.835 19.0387 12.1894C20.6062 14.25 22.1549 16.3312 23.7505 18.4575ZM0.249277 11.5762C0.384277 10.8994 0.474277 10.2094 0.661777 9.54562C1.78678 5.5275 6.39928 3.85687 9.56803 6.34687C11.4243 7.8075 11.8855 9.86625 11.7937 12.1875H1.33115C1.17365 16.3519 4.17178 18.8662 7.99303 17.5837C9.33365 17.1337 10.123 16.0837 10.5187 14.7712C10.7193 14.1131 11.0512 14.01 11.6699 14.1975C11.353 15.84 10.6349 17.2125 9.1349 18.0712C6.8849 19.3575 3.67303 18.9412 1.98365 17.1544C0.986152 16.1044 0.562402 14.7975 0.374902 13.3856C0.346777 13.1606 0.288652 12.9394 0.243652 12.7162C0.247402 12.3362 0.249277 11.9562 0.249277 11.5762ZM1.3499 11.2969H10.8055C10.7437 8.28562 8.86865 6.14625 6.30553 6.1275C3.49303 6.105 1.47178 8.19375 1.3499 11.2969Z" fill="white"/>
</svg>
