<svg width="24" height="24" viewBox="0 0 24 24" fill="none" xmlns="http://www.w3.org/2000/svg">
<path d="M12 15.0023V16.5023H15C15.3978 16.5023 15.7794 16.3442 16.0607 16.0629C16.342 15.7816 16.5 15.4001 16.5 15.0023V13.5023C16.5 13.1044 16.342 12.7229 16.0607 12.4416C15.7794 12.1603 15.3978 12.0023 15 12.0023H13.5V10.5023H16.5V9.00226H13.5C13.1022 9.00226 12.7206 9.16029 12.4393 9.4416C12.158 9.7229 12 10.1044 12 10.5023V12.0023C12 12.4001 12.158 12.7816 12.4393 13.0629C12.7206 13.3442 13.1022 13.5023 13.5 13.5023H15V15.0023H12Z" fill="#8BC34A"/>
<path d="M12 2.25226L3 7.50226V18.0023L6 19.5023H10.5V9.37726C10.5 9.2778 10.4605 9.18242 10.3902 9.11209C10.3198 9.04177 10.2245 9.00226 10.125 9.00226H9.375C9.27554 9.00226 9.18016 9.04177 9.10983 9.11209C9.03951 9.18242 9 9.2778 9 9.37726V18.0023H6L4.5 17.2268V8.36251L12 3.98776L19.5 8.36251V17.1398L12 21.5145L10.6913 20.748L9.75 21.9398L12 23.2523L21 18.0023V7.50226L12 2.25226Z" fill="#8BC34A"/>
</svg>
