<svg width="24" height="24" viewBox="0 0 24 24" fill="none" xmlns="http://www.w3.org/2000/svg">
<path d="M12 9C17.583 9 21 10.9425 21 12C21 13.0575 17.583 15 12 15C6.417 15 3 13.0575 3 12C3 10.9425 6.417 9 12 9ZM12 7.5C6.201 7.5 1.5 9.5145 1.5 12C1.5 14.4855 6.201 16.5 12 16.5C17.799 16.5 22.5 14.4855 22.5 12C22.5 9.5145 17.799 7.5 12 7.5Z" fill="#00BCD4"/>
<path d="M12 10.5C11.7033 10.5 11.4133 10.588 11.1666 10.7528C10.92 10.9176 10.7277 11.1519 10.6142 11.426C10.5006 11.7001 10.4709 12.0017 10.5288 12.2926C10.5867 12.5836 10.7296 12.8509 10.9393 13.0607C11.1491 13.2704 11.4164 13.4133 11.7074 13.4712C11.9983 13.5291 12.2999 13.4994 12.574 13.3858C12.8481 13.2723 13.0824 13.08 13.2472 12.8334C13.412 12.5867 13.5 12.2967 13.5 12C13.5 11.6022 13.342 11.2206 13.0607 10.9393C12.7794 10.658 12.3978 10.5 12 10.5Z" fill="#00BCD4"/>
<path d="M7.84348 4.13025C9.35623 4.13025 12.2962 6.513 14.598 10.5C17.3895 15.3353 17.4157 19.2653 16.5 19.794C16.3943 19.8488 16.2761 19.8747 16.1572 19.869C14.6445 19.869 11.7037 17.487 9.40198 13.5C6.61048 8.66475 6.58423 4.73475 7.49998 4.206C7.60584 4.15109 7.72436 4.12447 7.84348 4.13025ZM7.84273 2.631C7.4605 2.62408 7.08332 2.71909 6.74998 2.90625C4.59748 4.149 5.20348 9.228 8.10298 14.25C10.566 18.5175 13.893 21.3698 16.158 21.3698C16.5401 21.3761 16.917 21.2806 17.25 21.093C19.4025 19.851 18.7965 14.772 15.897 9.75C13.434 5.4825 10.107 2.63025 7.84198 2.63025L7.84273 2.631Z" fill="#00BCD4"/>
<path d="M16.1573 4.13025C16.2762 4.1246 16.3944 4.15048 16.5001 4.20525C17.4158 4.73475 17.3896 8.66475 14.5981 13.5C12.2956 17.487 9.35555 19.8698 7.8428 19.8698C7.72394 19.8754 7.6057 19.8495 7.50005 19.7948C6.5843 19.2645 6.61055 15.3345 9.40205 10.5C11.7046 6.513 14.6446 4.13025 16.1573 4.13025ZM16.1573 2.63025C13.8923 2.63025 10.5661 5.48325 8.1023 9.75C5.2043 14.772 4.59755 19.851 6.75005 21.093C7.08325 21.2807 7.46044 21.3762 7.8428 21.3698C10.1078 21.3698 13.4341 18.5168 15.8978 14.25C18.7958 9.228 19.4026 4.149 17.2501 2.907C16.9169 2.71932 16.5397 2.62379 16.1573 2.63025Z" fill="#00BCD4"/>
</svg>
