<svg width="24" height="24" viewBox="0 0 24 24" fill="none" xmlns="http://www.w3.org/2000/svg">
<g clip-path="url(#clip0_55_23)">
<path d="M0 11.7188V23.4375H23.4375V0H0V11.7188ZM18.8869 10.7812C19.4482 10.9115 19.9584 11.2051 20.3531 11.625C20.5704 11.8512 20.7593 12.1031 20.9156 12.375C20.9156 12.405 19.9031 13.0894 19.2863 13.4719C19.2638 13.4869 19.1738 13.3894 19.0744 13.2412C18.9618 13.0469 18.8018 12.8843 18.6093 12.7686C18.4168 12.6528 18.1982 12.5877 17.9738 12.5794C17.2631 12.5306 16.8056 12.9037 16.8094 13.5169C16.8037 13.6695 16.8386 13.8209 16.9106 13.9556C17.0663 14.28 17.3569 14.4731 18.2681 14.8669C19.9463 15.5887 20.6644 16.065 21.1106 16.7419C21.6094 17.4919 21.72 18.7031 21.3825 19.5994C21.0075 20.5744 20.0888 21.2362 18.7894 21.4556C18.1959 21.5236 17.5963 21.5173 17.0044 21.4369C16.0972 21.2873 15.2615 20.8518 14.6194 20.1937C14.4038 19.9556 13.9838 19.335 14.01 19.29C14.0783 19.239 14.1504 19.1932 14.2256 19.1531L15.0938 18.6731L15.7669 18.2831L15.9075 18.4912C16.1449 18.8307 16.4469 19.1199 16.7962 19.3425C17.5462 19.7362 18.57 19.6819 19.0763 19.2262C19.2462 19.0593 19.3523 18.838 19.3759 18.6009C19.3995 18.3638 19.3393 18.126 19.2056 17.9287C19.0181 17.6681 18.6431 17.4487 17.595 16.9912C16.3856 16.47 15.8644 16.1475 15.3881 15.6337C15.0909 15.2947 14.8714 14.8947 14.745 14.4619C14.6508 13.9673 14.6369 13.4608 14.7037 12.9619C14.9531 11.7937 15.8288 10.9781 17.1075 10.7362C17.6997 10.6631 18.2996 10.6795 18.8869 10.785V10.7812ZM13.3856 11.7638V12.7237H10.3425V21.3919H8.18438V12.7219H5.13375V11.7844C5.12418 11.4611 5.13169 11.1375 5.15625 10.815C5.17125 10.7981 7.03125 10.7981 9.28125 10.7981H13.3744L13.3856 11.7638Z" fill="#007ACC"/>
</g>
<defs>
<clipPath id="clip0_55_23">
<rect width="23.4375" height="23.4375" fill="white"/>
</clipPath>
</defs>
</svg>
